<?xml version="1.0" encoding="utf-8"?>
<!-- Generator: Adobe Illustrator 27.0.0, SVG Export Plug-In . SVG Version: 6.00 Build 0)  -->
<svg version="1.1" id="图层_1" xmlns="http://www.w3.org/2000/svg" xmlns:xlink="http://www.w3.org/1999/xlink" x="0px" y="0px"
	 viewBox="0 0 100 100" style="enable-background:new 0 0 100 100;" xml:space="preserve">
<style type="text/css">
	.st0{display:none;}
	.st1{display:inline;}
	.st2{fill:none;stroke:#000000;stroke-width:0.01;stroke-miterlimit:10;}
	.st3{fill:#F15A24;}
	.st4{fill:#B3B3B3;}
	.st5{fill:#1F2B3D;}
	.st6{clip-path:url(#SVGID_00000085954998694989988790000017402070005924295085_);}
	.st7{fill:#666666;}
</style>
<g class="st0">
	<g class="st1">
		<g>
			<polygon class="st2" points="59.2,59.83 62.09,61.38 62.1,61.34 59.21,59.79 59.2,59.83 			"/>
			<path class="st2" d="M59.94,54.57c-0.25,1.76-0.49,3.51-0.74,5.27c0.25-1.77,0.5-3.54,0.75-5.31L59.94,54.57L59.94,54.57z"/>
			<polygon class="st2" points="60.52,54.48 59.94,54.57 59.95,54.53 60.53,54.44 60.52,54.48 			"/>
			<path class="st2" d="M59.88,57.8c0.21-1.12,0.43-2.24,0.65-3.36C60.31,55.56,60.1,56.68,59.88,57.8L59.88,57.8z"/>
			<polygon class="st2" points="62.09,61.38 65.68,60.61 65.7,60.57 62.1,61.34 62.09,61.38 			"/>
			<path class="st2" d="M65.68,60.61c-1.93-0.94-3.87-1.87-5.8-2.81l0.01-0.04c1.93,0.94,3.87,1.87,5.8,2.81L65.68,60.61
				L65.68,60.61z"/>
			<path class="st2" d="M65.7,60.57c-1.93-0.94-3.87-1.87-5.8-2.81l0.64-3.32l-0.58,0.09c-0.25,1.76-0.49,3.51-0.74,5.27l2.89,1.54
				C63.3,61.08,64.5,60.83,65.7,60.57z"/>
			<path class="st2" d="M65.36,60.46l0.32,0.16l-3.6,0.77l-2.89-1.54c0.25-1.76,0.49-3.51,0.74-5.27l0.58-0.09l-0.64,3.32
				L65.36,60.46L65.36,60.46z"/>
		</g>
		<g>
			<polygon class="st2" points="59.13,60.31 61.84,61.78 61.85,61.73 59.14,60.27 59.13,60.31 			"/>
			<path class="st2" d="M59.18,59.98l-0.05,0.34c0.03-0.12,0.05-0.25,0.06-0.38L59.18,59.98L59.18,59.98z"/>
			<polygon class="st2" points="59.02,60.26 59.18,59.98 59.18,59.94 59.03,60.22 59.02,60.26 			"/>
			<polygon class="st2" points="58.93,60.21 59.02,60.26 59.03,60.22 58.94,60.17 58.93,60.21 			"/>
			<path class="st2" d="M59.23,59.58l-0.29,0.51l-0.02,0.11c0.01-0.05,0.02-0.1,0.02-0.15l0.29-0.51L59.23,59.58L59.23,59.58z"/>
			<path class="st2" d="M59.2,59.83c0.01-0.1,0.02-0.2,0.04-0.29C59.23,59.64,59.22,59.74,59.2,59.83L59.2,59.83z"/>
			<polygon class="st2" points="62.09,61.38 59.2,59.83 59.21,59.79 62.1,61.34 62.09,61.38 			"/>
			<polygon class="st2" points="65.01,60.76 62.09,61.38 62.1,61.34 65.02,60.72 65.01,60.76 			"/>
			<polygon class="st2" points="61.84,61.78 65.48,60.99 65.49,60.95 61.85,61.73 61.84,61.78 			"/>
			<polygon class="st2" points="65.48,60.99 65.01,60.76 65.02,60.72 65.49,60.95 65.48,60.99 			"/>
			<path class="st2" d="M65.49,60.95l-0.48-0.23l-2.92,0.62l-2.89-1.54l0.04-0.25l-0.29,0.51l-0.02,0.11l0.09,0.05l0.15-0.28
				l-0.05,0.34l2.72,1.46C63.07,61.47,64.28,61.21,65.49,60.95z"/>
			<path class="st2" d="M65.01,60.76l0.48,0.23l-3.64,0.79l-2.71-1.46l0.05-0.34l-0.15,0.28l-0.09-0.05l0.02-0.11l0.29-0.51
				l-0.04,0.25l2.89,1.54C63.06,61.17,64.03,60.96,65.01,60.76z"/>
		</g>
		<g>
			<polygon class="st2" points="59.88,57.8 65.36,60.46 65.37,60.42 59.89,57.76 59.88,57.8 			"/>
			<path class="st2" d="M60.52,54.48l-0.64,3.32c0.22-1.12,0.43-2.24,0.65-3.36L60.52,54.48L60.52,54.48z"/>
			<polygon class="st2" points="60.08,54.54 60.52,54.48 60.53,54.44 60.09,54.51 60.08,54.54 			"/>
			<path class="st2" d="M60.11,54.38l-0.02,0.16c0.01-0.07,0.03-0.13,0.03-0.2L60.11,54.38L60.11,54.38z"/>
			<polygon class="st2" points="60.68,54.3 60.11,54.38 60.11,54.34 60.69,54.26 60.68,54.3 			"/>
			<path class="st2" d="M60.07,57.58c0.21-1.11,0.41-2.21,0.62-3.32C60.49,55.36,60.28,56.47,60.07,57.58L60.07,57.58z"/>
			<polygon class="st2" points="65.36,60.46 65.83,60.36 65.84,60.32 65.37,60.42 65.36,60.46 			"/>
			<polygon class="st2" points="65.83,60.36 60.07,57.58 60.08,57.54 65.84,60.32 65.83,60.36 			"/>
			<path class="st2" d="M65.84,60.32l-5.77-2.78l0.61-3.28l-0.58,0.08l-0.02,0.16l0.44-0.06l-0.64,3.32l5.48,2.65
				C65.53,60.39,65.69,60.35,65.84,60.32z"/>
			<polygon class="st2" points="60.07,57.58 65.83,60.36 65.36,60.46 59.88,57.8 60.52,54.48 60.08,54.54 60.11,54.38 60.68,54.3 
				60.07,57.58 			"/>
		</g>
		<g>
			<polygon class="st2" points="56.19,62.63 59.36,57.26 59.37,57.22 56.19,62.59 56.19,62.63 			"/>
			<polygon class="st2" points="55.88,62.7 56.19,62.63 56.19,62.59 55.89,62.66 55.88,62.7 			"/>
			<path class="st2" d="M59.69,56.31c-1.27,2.13-2.54,4.26-3.81,6.39l0.01-0.04c1.27-2.13,2.54-4.26,3.82-6.39L59.69,56.31
				L59.69,56.31z"/>
			<path class="st2" d="M59.62,56.81L59.62,56.81l0.01-0.04c-0.09,0.15-0.18,0.3-0.26,0.45l-0.01,0.04L59.62,56.81L59.62,56.81z"/>
			<path class="st2" d="M59.62,56.81c0.01-0.18,0.04-0.37,0.08-0.55C59.69,56.45,59.66,56.63,59.62,56.81L59.62,56.81z"/>
			<path class="st2" d="M59.63,56.77l0.07-0.51c-1.27,2.13-2.54,4.26-3.82,6.39l0.31-0.07C57.34,60.65,58.48,58.71,59.63,56.77
				L59.63,56.77z"/>
			<path class="st2" d="M59.69,56.31l-0.07,0.51c-1.15,1.94-2.29,3.88-3.44,5.82l-0.31,0.07C57.15,60.57,58.42,58.44,59.69,56.31
				L59.69,56.31z"/>
		</g>
		<g>
			<polygon class="st2" points="57.41,62.37 57.71,62.31 58.95,60.1 58.95,60.06 57.72,62.27 57.42,62.33 57.41,62.37 			"/>
			<path class="st2" d="M59.31,59c-0.63,1.12-1.27,2.25-1.9,3.37l0.01-0.04c0.63-1.12,1.27-2.25,1.9-3.37L59.31,59L59.31,59z"/>
			<polygon class="st2" points="58.95,60.1 59.23,59.58 59.24,59.54 58.95,60.06 58.95,60.1 			"/>
			<path class="st2" d="M59.23,59.58c0.02-0.21,0.05-0.42,0.09-0.62C59.31,59.17,59.28,59.38,59.23,59.58L59.23,59.58z"/>
			<path class="st2" d="M59.24,59.54l0.08-0.58c-0.63,1.12-1.27,2.25-1.9,3.37l0.3-0.06C58.23,61.36,58.73,60.45,59.24,59.54
				L59.24,59.54z"/>
			<path class="st2" d="M59.31,59l-0.08,0.58c-0.51,0.91-1.02,1.82-1.52,2.73l-0.3,0.06C58.04,61.25,58.68,60.13,59.31,59L59.31,59z
				"/>
		</g>
		<g>
			<polygon class="st2" points="55.66,58.26 55.85,58.36 55.85,58.32 55.66,58.22 55.66,58.26 			"/>
			<polygon class="st2" points="56.84,56.5 55.66,58.26 55.66,58.22 56.85,56.47 56.84,56.5 			"/>
			<polygon class="st2" points="56.95,56.56 56.84,56.5 56.85,56.47 56.96,56.52 56.95,56.56 			"/>
			<polygon class="st2" points="55.85,58.36 58.2,54.82 58.21,54.78 55.85,58.32 55.85,58.36 			"/>
			<path class="st2" d="M58.2,54.82l-0.26,0.04l-0.93,1.38l-0.07,0.32c0.02-0.12,0.05-0.24,0.07-0.36l0.93-1.38l0.26-0.04
				L58.2,54.82L58.2,54.82z"/>
			<polygon class="st2" points="58.21,54.78 57.95,54.82 57.02,56.2 56.96,56.52 56.85,56.47 55.66,58.22 55.85,58.32 58.21,54.78 
							"/>
			<polygon class="st2" points="57.95,54.86 58.2,54.82 55.85,58.36 55.66,58.26 56.84,56.5 56.95,56.56 57.02,56.24 57.95,54.86 
							"/>
		</g>
		<g>
			<polygon class="st2" points="55.15,62.86 59.86,55.16 59.86,55.12 55.15,62.81 55.15,62.86 			"/>
			<polygon class="st2" points="54.88,62.91 55.15,62.86 55.15,62.81 54.89,62.87 54.88,62.91 			"/>
			<path class="st2" d="M54.92,62.79l-0.03,0.12c0.01-0.06,0.02-0.11,0.04-0.17L54.92,62.79L54.92,62.79z"/>
			<polygon class="st2" points="59.92,54.69 54.92,62.79 54.92,62.75 59.93,54.65 59.92,54.69 			"/>
			<path class="st2" d="M59.86,55.16c0.01-0.13,0.03-0.25,0.06-0.38C59.9,54.91,59.88,55.03,59.86,55.16L59.86,55.16z"/>
			<path class="st2" d="M59.9,54.82c0-0.06,0.01-0.11,0.03-0.17C59.92,54.71,59.92,54.76,59.9,54.82L59.9,54.82z"/>
			<polygon class="st2" points="59.91,54.78 59.93,54.65 54.92,62.75 54.89,62.87 55.15,62.81 59.86,55.12 59.91,54.78 			"/>
			<path class="st2" d="M59.92,54.69c-0.02,0.16-0.04,0.31-0.07,0.47l-4.71,7.7l-0.27,0.06l0.03-0.12L59.92,54.69L59.92,54.69z"/>
		</g>
		<g>
			<polygon class="st2" points="56.7,62.53 59.5,57.69 59.51,57.65 56.7,62.48 56.7,62.53 			"/>
			<polygon class="st2" points="56.39,62.59 56.7,62.53 56.7,62.48 56.4,62.55 56.39,62.59 			"/>
			<path class="st2" d="M59.57,57.16c-1.06,1.81-2.12,3.62-3.18,5.43l0.01-0.04c1.06-1.81,2.12-3.62,3.18-5.43L59.57,57.16
				L59.57,57.16z"/>
			<path class="st2" d="M59.5,57.69c0.01-0.1,0.02-0.2,0.04-0.29C59.53,57.5,59.52,57.59,59.5,57.69L59.5,57.69z"/>
			<path class="st2" d="M59.53,57.44c0.01-0.11,0.02-0.21,0.05-0.32C59.57,57.23,59.56,57.33,59.53,57.44L59.53,57.44z"/>
			<path class="st2" d="M59.54,57.4l0.04-0.28c-1.06,1.81-2.12,3.62-3.18,5.43l0.31-0.06l2.8-4.83L59.54,57.4L59.54,57.4z"/>
			<path class="st2" d="M59.57,57.16c-0.02,0.18-0.05,0.35-0.07,0.53l-2.8,4.84l-0.3,0.06C57.45,60.78,58.51,58.97,59.57,57.16
				L59.57,57.16z"/>
		</g>
		<g>
			<polygon class="st2" points="57.91,62.27 58.21,62.2 59.09,60.59 59.1,60.55 58.21,62.16 57.92,62.23 57.91,62.27 			"/>
			<path class="st2" d="M59.18,59.98c-0.42,0.76-0.85,1.53-1.27,2.29l0.01-0.04c0.42-0.76,0.85-1.53,1.27-2.29L59.18,59.98
				L59.18,59.98z"/>
			<path class="st2" d="M59.09,60.59c0.01-0.11,0.02-0.21,0.05-0.31C59.13,60.38,59.11,60.49,59.09,60.59L59.09,60.59z"/>
			<path class="st2" d="M59.13,60.31c0.01-0.13,0.03-0.25,0.06-0.38C59.18,60.07,59.16,60.19,59.13,60.31L59.13,60.31z"/>
			<path class="st2" d="M59.14,60.27l0.05-0.34c-0.42,0.76-0.85,1.53-1.27,2.29l0.3-0.06l0.89-1.62L59.14,60.27L59.14,60.27z"/>
			<path class="st2" d="M59.18,59.98c-0.03,0.2-0.06,0.41-0.09,0.61l-0.89,1.62l-0.3,0.06C58.33,61.5,58.75,60.74,59.18,59.98
				L59.18,59.98z"/>
		</g>
		<g>
			<path class="st2" d="M59.86,55.16l-0.25,0.41l-0.05,0.32c0.03-0.12,0.04-0.24,0.06-0.36l0.25-0.41L59.86,55.16L59.86,55.16z"/>
			<polygon class="st2" points="59.56,55.89 59.81,55.47 59.82,55.44 59.57,55.85 59.56,55.89 			"/>
			<path class="st2" d="M59.81,55.47c0.01-0.12,0.03-0.24,0.05-0.36C59.85,55.24,59.84,55.36,59.81,55.47L59.81,55.47z"/>
			<polygon class="st2" points="59.82,55.44 59.86,55.12 59.61,55.53 59.57,55.85 59.82,55.44 			"/>
			<polygon class="st2" points="59.86,55.16 59.81,55.47 59.56,55.89 59.61,55.56 59.86,55.16 			"/>
		</g>
		<g>
			<polygon class="st2" points="55.67,62.74 59.74,55.97 59.75,55.94 55.68,62.7 55.67,62.74 			"/>
			<polygon class="st2" points="55.35,62.81 55.67,62.74 55.68,62.7 55.36,62.77 55.35,62.81 			"/>
			<polygon class="st2" points="59.81,55.47 55.35,62.81 55.36,62.77 59.82,55.44 59.81,55.47 			"/>
			<path class="st2" d="M59.74,55.97c0.01-0.12,0.03-0.25,0.05-0.37C59.78,55.73,59.77,55.85,59.74,55.97L59.74,55.97z"/>
			<path class="st2" d="M59.79,55.65c0.01-0.07,0.02-0.14,0.03-0.21C59.81,55.51,59.8,55.58,59.79,55.65L59.79,55.65z"/>
			<polygon class="st2" points="59.79,55.61 59.82,55.44 55.36,62.77 55.68,62.7 59.75,55.94 59.79,55.61 			"/>
			<path class="st2" d="M59.81,55.47c-0.02,0.17-0.05,0.33-0.07,0.5l-4.07,6.77l-0.32,0.07L59.81,55.47L59.81,55.47z"/>
		</g>
		<g>
			<path class="st2" d="M56.13,58.5l-0.03,0.1c0.01-0.05,0.02-0.1,0.04-0.14L56.13,58.5L56.13,58.5z"/>
			<polygon class="st2" points="55.97,58.42 56.13,58.5 56.14,58.46 55.98,58.38 55.97,58.42 			"/>
			<polygon class="st2" points="58.37,54.8 55.97,58.42 55.98,58.38 58.38,54.76 58.37,54.8 			"/>
			<polygon class="st2" points="56.1,58.6 58.62,54.76 58.62,54.72 56.11,58.56 56.1,58.6 			"/>
			<polygon class="st2" points="58.62,54.76 58.37,54.8 58.38,54.76 58.62,54.72 58.62,54.76 			"/>
			<polygon class="st2" points="58.62,54.72 58.38,54.76 55.98,58.38 56.14,58.46 56.11,58.56 58.62,54.72 			"/>
			<polygon class="st2" points="58.37,54.8 58.62,54.76 56.1,58.6 56.13,58.5 55.97,58.42 58.37,54.8 			"/>
		</g>
		<g>
			<polygon class="st2" points="53.23,57.04 53.41,57.13 53.41,57.09 53.23,57 53.23,57.04 			"/>
			<polygon class="st2" points="54.63,55.35 54.5,55.37 53.23,57.04 53.23,57 54.5,55.33 54.63,55.31 54.63,55.35 			"/>
			<polygon class="st2" points="53.41,57.13 54.71,55.4 54.72,55.36 53.41,57.09 53.41,57.13 			"/>
			<polygon class="st2" points="54.71,55.4 54.63,55.35 54.63,55.31 54.72,55.36 54.71,55.4 			"/>
			<polygon class="st2" points="54.72,55.36 54.63,55.31 54.5,55.33 53.23,57 53.41,57.09 54.72,55.36 			"/>
			<path class="st2" d="M54.63,55.35l0.09,0.05l-1.31,1.73l-0.18-0.09l1.27-1.67C54.54,55.36,54.58,55.36,54.63,55.35z"/>
		</g>
		<g>
			<polygon class="st2" points="59.31,57.61 59.57,57.16 59.58,57.12 59.32,57.57 59.31,57.61 			"/>
			<path class="st2" d="M59.62,56.81l-0.26,0.45l-0.05,0.35c0.03-0.13,0.05-0.26,0.06-0.39l0.26-0.45L59.62,56.81L59.62,56.81z"/>
			<path class="st2" d="M59.57,57.16l-0.04,0.28c0.02-0.1,0.04-0.21,0.05-0.32L59.57,57.16L59.57,57.16z"/>
			<path class="st2" d="M59.53,57.44c0.02-0.22,0.05-0.44,0.1-0.66C59.61,57,59.58,57.22,59.53,57.44L59.53,57.44z"/>
			<polygon class="st2" points="59.54,57.4 59.63,56.77 59.37,57.22 59.32,57.57 59.58,57.12 59.54,57.4 			"/>
			<polygon class="st2" points="59.62,56.81 59.53,57.44 59.57,57.16 59.31,57.61 59.36,57.26 59.62,56.81 			"/>
		</g>
		<g>
			<path class="st2" d="M55.29,61.48l-0.22,0.78c0.04-0.28,0.12-0.55,0.23-0.82L55.29,61.48L55.29,61.48z"/>
			<polygon class="st2" points="59.6,54.62 55.29,61.48 55.29,61.44 59.61,54.58 59.6,54.62 			"/>
			<polygon class="st2" points="55.07,62.25 59.84,54.58 59.85,54.54 55.07,62.21 55.07,62.25 			"/>
			<polygon class="st2" points="59.84,54.58 59.6,54.62 59.61,54.58 59.85,54.54 59.84,54.58 			"/>
			<polygon class="st2" points="59.85,54.54 59.61,54.58 55.29,61.44 55.07,62.21 59.85,54.54 			"/>
			<polygon class="st2" points="59.6,54.62 59.84,54.58 55.07,62.25 55.29,61.48 59.6,54.62 			"/>
		</g>
		<g>
			<path class="st2" d="M55.64,60.22l-0.21,0.76c0.04-0.27,0.12-0.54,0.22-0.8L55.64,60.22L55.64,60.22z"/>
			<polygon class="st2" points="59.19,54.68 55.64,60.22 55.65,60.18 59.2,54.64 59.19,54.68 			"/>
			<polygon class="st2" points="55.43,60.97 59.44,54.64 59.45,54.6 55.44,60.93 55.43,60.97 			"/>
			<polygon class="st2" points="59.44,54.64 59.19,54.68 59.2,54.64 59.45,54.6 59.44,54.64 			"/>
			<polygon class="st2" points="59.45,54.6 59.2,54.64 55.65,60.18 55.44,60.93 59.45,54.6 			"/>
			<polygon class="st2" points="59.19,54.68 59.44,54.64 55.43,60.97 55.64,60.22 59.19,54.68 			"/>
		</g>
		<g>
			<path class="st2" d="M55.97,59.06l-0.19,0.68c0.04-0.25,0.11-0.49,0.2-0.72L55.97,59.06L55.97,59.06z"/>
			<polygon class="st2" points="55.78,59.74 59.03,54.7 59.03,54.66 55.78,59.7 55.78,59.74 			"/>
			<polygon class="st2" points="59.03,54.7 58.79,54.74 55.97,59.06 55.98,59.02 58.79,54.7 59.03,54.66 59.03,54.7 			"/>
			<polygon class="st2" points="59.03,54.66 58.79,54.7 55.98,59.02 55.78,59.7 59.03,54.66 			"/>
			<polygon class="st2" points="58.79,54.74 59.03,54.7 55.78,59.74 55.97,59.06 58.79,54.74 			"/>
		</g>
		<g>
			<polygon class="st2" points="56.9,62.48 57.21,62.42 57.22,62.38 56.91,62.44 56.9,62.48 			"/>
			<polygon class="st2" points="59.45,58.05 56.9,62.48 56.91,62.44 59.46,58.01 59.45,58.05 			"/>
			<polygon class="st2" points="57.21,62.42 59.37,58.62 59.38,58.58 57.22,62.38 57.21,62.42 			"/>
			<path class="st2" d="M59.37,58.62c0.02-0.21,0.05-0.41,0.09-0.61C59.44,58.22,59.41,58.42,59.37,58.62L59.37,58.62z"/>
			<polygon class="st2" points="59.38,58.58 59.46,58.01 56.91,62.44 57.22,62.38 59.38,58.58 			"/>
			<polygon class="st2" points="59.45,58.05 59.37,58.62 57.21,62.42 56.9,62.48 59.45,58.05 			"/>
		</g>
		<g>
			<polygon class="st2" points="53.52,57.19 53.71,57.28 53.71,57.24 53.53,57.15 53.52,57.19 			"/>
			<polygon class="st2" points="54.83,55.46 53.52,57.19 53.53,57.15 54.84,55.42 54.83,55.46 			"/>
			<polygon class="st2" points="53.71,57.28 55,55.55 55.01,55.51 53.71,57.24 53.71,57.28 			"/>
			<polygon class="st2" points="55,55.55 54.83,55.46 54.84,55.42 55.01,55.51 55,55.55 			"/>
			<polygon class="st2" points="55.01,55.51 54.84,55.42 53.53,57.15 53.71,57.24 55.01,55.51 			"/>
			<polygon class="st2" points="54.83,55.46 55,55.55 53.71,57.28 53.52,57.19 54.83,55.46 			"/>
		</g>
		<g>
			<polygon class="st2" points="53.83,57.34 54.01,57.43 54.02,57.39 53.83,57.3 53.83,57.34 			"/>
			<polygon class="st2" points="55.11,55.6 53.83,57.34 53.83,57.3 55.12,55.56 55.11,55.6 			"/>
			<polygon class="st2" points="54.01,57.43 55.28,55.69 55.29,55.65 54.02,57.39 54.01,57.43 			"/>
			<polygon class="st2" points="55.28,55.69 55.11,55.6 55.12,55.56 55.29,55.65 55.28,55.69 			"/>
			<polygon class="st2" points="55.29,55.65 55.12,55.56 53.83,57.3 54.02,57.39 55.29,55.65 			"/>
			<polygon class="st2" points="55.11,55.6 55.28,55.69 54.01,57.43 53.83,57.34 55.11,55.6 			"/>
		</g>
		<g>
			<polygon class="st2" points="54.13,57.49 54.31,57.58 54.32,57.54 54.14,57.45 54.13,57.49 			"/>
			<polygon class="st2" points="55.4,55.75 54.13,57.49 54.14,57.45 55.4,55.71 55.4,55.75 			"/>
			<polygon class="st2" points="54.31,57.58 55.57,55.84 55.57,55.8 54.32,57.54 54.31,57.58 			"/>
			<polygon class="st2" points="55.57,55.84 55.4,55.75 55.4,55.71 55.57,55.8 55.57,55.84 			"/>
			<polygon class="st2" points="55.57,55.8 55.4,55.71 54.14,57.45 54.32,57.54 55.57,55.8 			"/>
			<polygon class="st2" points="55.4,55.75 55.57,55.84 54.31,57.58 54.13,57.49 55.4,55.75 			"/>
		</g>
		<g>
			<polygon class="st2" points="54.43,57.64 54.61,57.74 54.62,57.7 54.44,57.6 54.43,57.64 			"/>
			<polygon class="st2" points="55.69,55.9 54.43,57.64 54.44,57.6 55.69,55.86 55.69,55.9 			"/>
			<polygon class="st2" points="54.61,57.74 55.86,55.99 55.86,55.95 54.62,57.7 54.61,57.74 			"/>
			<polygon class="st2" points="55.86,55.99 55.69,55.9 55.69,55.86 55.86,55.95 55.86,55.99 			"/>
			<polygon class="st2" points="55.86,55.95 55.69,55.86 54.44,57.6 54.62,57.7 55.86,55.95 			"/>
			<polygon class="st2" points="55.69,55.9 55.86,55.99 54.61,57.74 54.43,57.64 55.69,55.9 			"/>
		</g>
		<g>
			<polygon class="st2" points="54.74,57.8 54.92,57.89 54.93,57.85 54.75,57.76 54.74,57.8 			"/>
			<polygon class="st2" points="55.97,56.05 54.74,57.8 54.75,57.76 55.97,56.01 55.97,56.05 			"/>
			<polygon class="st2" points="54.92,57.89 56.14,56.14 56.15,56.1 54.93,57.85 54.92,57.89 			"/>
			<polygon class="st2" points="56.14,56.14 55.97,56.05 55.97,56.01 56.15,56.1 56.14,56.14 			"/>
			<polygon class="st2" points="56.15,56.1 55.97,56.01 54.75,57.76 54.93,57.85 56.15,56.1 			"/>
			<polygon class="st2" points="55.97,56.05 56.14,56.14 54.92,57.89 54.74,57.8 55.97,56.05 			"/>
		</g>
		<g>
			<polygon class="st2" points="55.05,57.95 55.23,58.05 55.23,58.01 55.05,57.91 55.05,57.95 			"/>
			<polygon class="st2" points="56.26,56.2 55.05,57.95 55.05,57.91 56.27,56.16 56.26,56.2 			"/>
			<polygon class="st2" points="55.23,58.05 56.43,56.29 56.44,56.25 55.23,58.01 55.23,58.05 			"/>
			<polygon class="st2" points="56.43,56.29 56.26,56.2 56.27,56.16 56.44,56.25 56.43,56.29 			"/>
			<polygon class="st2" points="56.44,56.25 56.27,56.16 55.05,57.91 55.23,58.01 56.44,56.25 			"/>
			<polygon class="st2" points="56.26,56.2 56.43,56.29 55.23,58.05 55.05,57.95 56.26,56.2 			"/>
		</g>
		<g>
			<polygon class="st2" points="55.35,58.11 55.53,58.2 55.54,58.16 55.36,58.07 55.35,58.11 			"/>
			<polygon class="st2" points="56.55,56.36 55.35,58.11 55.36,58.07 56.56,56.32 56.55,56.36 			"/>
			<polygon class="st2" points="55.53,58.2 56.72,56.44 56.73,56.4 55.54,58.16 55.53,58.2 			"/>
			<polygon class="st2" points="56.72,56.44 56.55,56.36 56.56,56.32 56.73,56.4 56.72,56.44 			"/>
			<polygon class="st2" points="56.73,56.4 56.56,56.32 55.36,58.07 55.54,58.16 56.73,56.4 			"/>
			<polygon class="st2" points="56.55,56.36 56.72,56.44 55.53,58.2 55.35,58.11 56.55,56.36 			"/>
		</g>
		<g>
			<polygon class="st2" points="52.93,56.89 53.11,56.98 53.11,56.94 52.93,56.85 52.93,56.89 			"/>
			<polygon class="st2" points="53.11,56.98 54.32,55.4 54.33,55.36 53.11,56.94 53.11,56.98 			"/>
			<polygon class="st2" points="54.32,55.4 54.05,55.44 52.93,56.89 52.93,56.85 54.05,55.4 54.33,55.36 54.32,55.4 			"/>
			<polygon class="st2" points="54.33,55.36 54.05,55.4 52.93,56.85 53.11,56.94 54.33,55.36 			"/>
			<polygon class="st2" points="54.05,55.44 54.32,55.4 53.11,56.98 52.93,56.89 54.05,55.44 			"/>
		</g>
		<g>
			<polygon class="st2" points="52.64,56.74 52.81,56.83 52.81,56.79 52.64,56.7 52.64,56.74 			"/>
			<polygon class="st2" points="52.81,56.83 53.87,55.46 53.87,55.42 52.81,56.79 52.81,56.83 			"/>
			<polygon class="st2" points="53.87,55.46 53.61,55.5 52.64,56.74 52.64,56.7 53.61,55.46 53.87,55.42 53.87,55.46 			"/>
			<polygon class="st2" points="53.87,55.42 53.61,55.46 52.64,56.7 52.81,56.79 53.87,55.42 			"/>
			<polygon class="st2" points="53.61,55.5 53.87,55.46 52.81,56.83 52.64,56.74 53.61,55.5 			"/>
		</g>
		<g>
			<polygon class="st2" points="52.34,56.59 52.51,56.68 52.52,56.64 52.34,56.55 52.34,56.59 			"/>
			<polygon class="st2" points="52.51,56.68 53.42,55.53 53.43,55.49 52.52,56.64 52.51,56.68 			"/>
			<polygon class="st2" points="53.42,55.53 53.15,55.57 52.34,56.59 52.34,56.55 53.16,55.53 53.43,55.49 53.42,55.53 			"/>
			<polygon class="st2" points="53.43,55.49 53.16,55.53 52.34,56.55 52.52,56.64 53.43,55.49 			"/>
			<polygon class="st2" points="53.15,55.57 53.42,55.53 52.51,56.68 52.34,56.59 53.15,55.57 			"/>
		</g>
		<g>
			<polygon class="st2" points="57.09,55.91 57.78,54.89 57.79,54.85 57.09,55.87 57.09,55.91 			"/>
			<path class="st2" d="M57.78,54.89l-0.25,0.04l-0.35,0.51l-0.1,0.48c0.03-0.17,0.06-0.35,0.11-0.52l0.35-0.51l0.25-0.04
				L57.78,54.89L57.78,54.89z"/>
			<polygon class="st2" points="57.79,54.85 57.54,54.88 57.19,55.39 57.09,55.87 57.79,54.85 			"/>
			<polygon class="st2" points="57.53,54.92 57.78,54.89 57.09,55.91 57.19,55.43 57.53,54.92 			"/>
		</g>
		<g>
			<polygon class="st2" points="52.04,56.44 52.22,56.53 52.23,56.49 52.05,56.4 52.04,56.44 			"/>
			<polygon class="st2" points="52.22,56.53 52.97,55.6 52.97,55.56 52.23,56.49 52.22,56.53 			"/>
			<polygon class="st2" points="52.97,55.6 52.69,55.64 52.04,56.44 52.05,56.4 52.69,55.6 52.97,55.56 52.97,55.6 			"/>
			<polygon class="st2" points="52.97,55.56 52.69,55.6 52.05,56.4 52.23,56.49 52.97,55.56 			"/>
			<polygon class="st2" points="52.69,55.64 52.97,55.6 52.22,56.53 52.04,56.44 52.69,55.64 			"/>
		</g>
		<g>
			<polygon class="st2" points="59.03,61 58.4,62.16 58.41,62.12 59.04,60.96 59.03,61 			"/>
			<path class="st2" d="M58.71,62.1l0.23-0.43l0.01-0.04l-0.23,0.43l-0.3,0.06l-0.01,0.04C58.5,62.14,58.6,62.12,58.71,62.1z"/>
			<path class="st2" d="M58.94,61.66c0.02-0.24,0.05-0.47,0.1-0.7C59.02,61.2,58.99,61.43,58.94,61.66L58.94,61.66z"/>
			<polygon class="st2" points="58.95,61.62 59.04,60.96 58.41,62.12 58.71,62.06 58.95,61.62 			"/>
			<polygon class="st2" points="59.03,61 58.94,61.66 58.71,62.1 58.4,62.16 59.03,61 			"/>
		</g>
		<g>
			<polygon class="st2" points="51.75,56.29 51.92,56.38 51.93,56.34 51.76,56.25 51.75,56.29 			"/>
			<polygon class="st2" points="51.92,56.38 52.51,55.67 52.51,55.63 51.93,56.34 51.92,56.38 			"/>
			<polygon class="st2" points="52.51,55.67 52.24,55.71 51.75,56.29 51.76,56.25 52.24,55.67 52.51,55.63 52.51,55.67 			"/>
			<polygon class="st2" points="52.51,55.63 52.24,55.67 51.76,56.25 51.93,56.34 52.51,55.63 			"/>
			<polygon class="st2" points="52.24,55.71 52.51,55.67 51.92,56.38 51.75,56.29 52.24,55.71 			"/>
		</g>
		<g>
			<path class="st2" d="M59.37,58.62l-0.28,0.49l-0.06,0.39c0.03-0.14,0.05-0.28,0.07-0.43l0.28-0.49L59.37,58.62L59.37,58.62z"/>
			<polygon class="st2" points="59.03,59.5 59.31,59 59.32,58.96 59.04,59.46 59.03,59.5 			"/>
			<path class="st2" d="M59.31,59c0.01-0.14,0.03-0.28,0.06-0.42C59.36,58.72,59.34,58.86,59.31,59L59.31,59z"/>
			<polygon class="st2" points="59.32,58.96 59.38,58.58 59.1,59.07 59.04,59.46 59.32,58.96 			"/>
			<polygon class="st2" points="59.37,58.62 59.31,59 59.03,59.5 59.09,59.11 59.37,58.62 			"/>
		</g>
		<g>
			<path class="st2" d="M59.74,55.97l-0.26,0.43l-0.05,0.34c0.03-0.12,0.05-0.25,0.06-0.38l0.26-0.43L59.74,55.97L59.74,55.97z"/>
			<polygon class="st2" points="59.43,56.74 59.69,56.31 59.7,56.27 59.44,56.7 59.43,56.74 			"/>
			<path class="st2" d="M59.69,56.31c0.01-0.12,0.03-0.25,0.05-0.37C59.74,56.06,59.72,56.18,59.69,56.31L59.69,56.31z"/>
			<polygon class="st2" points="59.7,56.27 59.75,55.94 59.49,56.36 59.44,56.7 59.7,56.27 			"/>
			<polygon class="st2" points="59.74,55.97 59.69,56.31 59.43,56.74 59.48,56.4 59.74,55.97 			"/>
		</g>
		<g>
			<path class="st2" d="M59.5,57.69l-0.27,0.47l-0.05,0.37c0.03-0.14,0.05-0.27,0.06-0.41l0.27-0.47L59.5,57.69L59.5,57.69z"/>
			<polygon class="st2" points="59.17,58.53 59.45,58.05 59.46,58.01 59.18,58.49 59.17,58.53 			"/>
			<path class="st2" d="M59.45,58.05c0.01-0.14,0.03-0.27,0.06-0.4C59.5,57.79,59.48,57.92,59.45,58.05L59.45,58.05z"/>
			<polygon class="st2" points="59.46,58.01 59.51,57.65 59.24,58.12 59.18,58.49 59.46,58.01 			"/>
			<polygon class="st2" points="59.5,57.69 59.45,58.05 59.17,58.53 59.23,58.16 59.5,57.69 			"/>
		</g>
		<g>
			<polygon class="st2" points="50.5,55.74 50.55,55.84 50.56,55.8 50.5,55.7 50.5,55.74 			"/>
			<polygon class="st2" points="51.45,55.6 50.5,55.74 50.5,55.7 51.46,55.56 51.45,55.6 			"/>
			<polygon class="st2" points="50.55,55.84 51.51,55.69 51.52,55.65 50.56,55.8 50.55,55.84 			"/>
			<polygon class="st2" points="51.51,55.69 51.45,55.6 51.46,55.56 51.52,55.65 51.51,55.69 			"/>
			<path class="st2" d="M51.52,55.65l-0.06-0.1L50.5,55.7l0.06,0.1C50.88,55.75,51.2,55.7,51.52,55.65z"/>
			<path class="st2" d="M51.45,55.6l0.06,0.1l-0.96,0.14l-0.06-0.1C50.82,55.69,51.13,55.64,51.45,55.6z"/>
		</g>
		<g>
			<polygon class="st2" points="51.46,56.15 51.64,56.24 51.64,56.2 51.46,56.11 51.46,56.15 			"/>
			<polygon class="st2" points="51.77,55.77 51.46,56.15 51.46,56.11 51.77,55.73 51.77,55.77 			"/>
			<polygon class="st2" points="51.64,56.24 52.05,55.73 52.06,55.69 51.64,56.2 51.64,56.24 			"/>
			<polygon class="st2" points="52.05,55.73 51.77,55.77 51.77,55.73 52.06,55.69 52.05,55.73 			"/>
			<polygon class="st2" points="52.06,55.69 51.77,55.73 51.46,56.11 51.64,56.2 52.06,55.69 			"/>
			<polygon class="st2" points="51.77,55.77 52.05,55.73 51.64,56.24 51.46,56.15 51.77,55.77 			"/>
		</g>
		<g>
			<polygon class="st2" points="51.17,56 51.35,56.09 51.35,56.05 51.17,55.96 51.17,56 			"/>
			<polygon class="st2" points="51.35,56.09 51.59,55.8 51.59,55.76 51.35,56.05 51.35,56.09 			"/>
			<polygon class="st2" points="51.59,55.8 51.3,55.84 51.17,56 51.17,55.96 51.3,55.8 51.59,55.76 51.59,55.8 			"/>
			<polygon class="st2" points="51.59,55.76 51.3,55.8 51.17,55.96 51.35,56.05 51.59,55.76 			"/>
			<polygon class="st2" points="51.3,55.84 51.59,55.8 51.35,56.09 51.17,56 51.3,55.84 			"/>
		</g>
		<g>
			<polygon class="st2" points="51.53,55.59 51.59,55.68 51.59,55.64 51.53,55.55 51.53,55.59 			"/>
			<polygon class="st2" points="51.85,55.54 51.53,55.59 51.53,55.55 51.85,55.5 51.85,55.54 			"/>
			<polygon class="st2" points="51.59,55.68 51.91,55.64 51.91,55.6 51.59,55.64 51.59,55.68 			"/>
			<polygon class="st2" points="51.91,55.64 51.85,55.54 51.85,55.5 51.91,55.6 51.91,55.64 			"/>
			<path class="st2" d="M51.91,55.6l-0.06-0.1l-0.32,0.05l0.06,0.1C51.7,55.63,51.8,55.61,51.91,55.6z"/>
			<path class="st2" d="M51.85,55.54l0.06,0.1l-0.32,0.05l-0.06-0.1C51.64,55.57,51.74,55.56,51.85,55.54z"/>
		</g>
		<g>
			<path class="st2" d="M59.71,54.85l-0.04,0.24c0.02-0.09,0.03-0.18,0.04-0.28L59.71,54.85L59.71,54.85z"/>
			<polygon class="st2" points="59.67,55.09 59.84,54.83 59.85,54.79 59.68,55.05 59.67,55.09 			"/>
			<polygon class="st2" points="59.84,54.83 59.71,54.85 59.72,54.81 59.85,54.79 59.84,54.83 			"/>
			<polygon class="st2" points="59.85,54.79 59.72,54.81 59.68,55.05 59.85,54.79 			"/>
			<polygon class="st2" points="59.71,54.85 59.84,54.83 59.67,55.09 59.71,54.85 			"/>
		</g>
		<g>
			<path class="st2" d="M57.28,54.96l-0.03,0.14c0.01-0.06,0.02-0.12,0.04-0.18L57.28,54.96L57.28,54.96z"/>
			<polygon class="st2" points="57.25,55.1 57.36,54.95 57.37,54.91 57.26,55.06 57.25,55.1 			"/>
			<polygon class="st2" points="57.36,54.95 57.28,54.96 57.29,54.92 57.37,54.91 57.36,54.95 			"/>
			<polygon class="st2" points="57.37,54.91 57.29,54.92 57.26,55.06 57.37,54.91 			"/>
			<polygon class="st2" points="57.28,54.96 57.36,54.95 57.25,55.1 57.28,54.96 			"/>
		</g>
		<g>
			<polygon class="st2" points="50.96,55.89 51.05,55.94 51.06,55.9 50.96,55.85 50.96,55.89 			"/>
			<polygon class="st2" points="51.05,55.94 51.11,55.87 51.11,55.83 51.06,55.9 51.05,55.94 			"/>
			<polygon class="st2" points="51.11,55.87 50.96,55.89 50.96,55.85 51.11,55.83 51.11,55.87 			"/>
			<polygon class="st2" points="51.11,55.83 50.96,55.85 51.06,55.9 51.11,55.83 			"/>
			<polygon class="st2" points="50.96,55.89 51.11,55.87 51.05,55.94 50.96,55.89 			"/>
		</g>
		<g>
		</g>
	</g>
</g>
<g>
	<g>
		<polygon class="st3" points="62.76,52.17 91.58,8.88 85.45,8.88 44.99,74.65 59.08,97.76 92.86,97.76 		"/>
		<polygon class="st4" points="69.9,46.22 98.72,2.93 92.59,2.93 52.13,68.69 66.22,91.8 100,91.8 		"/>
		<polygon class="st5" points="66.93,48.6 95.75,5.31 89.62,5.31 49.15,71.07 63.24,94.19 97.02,94.19 		"/>
		<g>
			<defs>
				<polygon id="SVGID_1_" points="62.61,5.31 49.66,26.51 36.84,5.31 3.06,5.31 31.88,48.98 1.79,94.19 34.93,94.19 49.15,71.07 
					89.62,5.31 				"/>
			</defs>
			<clipPath id="SVGID_00000091693488299336988780000006697897947418026885_">
				<use xlink:href="#SVGID_1_"  style="overflow:visible;"/>
			</clipPath>
			<g style="clip-path:url(#SVGID_00000091693488299336988780000006697897947418026885_);">
				
					<rect x="-89.33" y="7.65" transform="matrix(0.7071 -0.7071 0.7071 0.7071 -6.0535 2.468)" class="st7" width="178.56" height="1.79"/>
				<polyline class="st7" points="-61.71,73.15 64.56,-53.12 65.82,-51.85 -60.44,74.41 				"/>
				
					<rect x="-85.12" y="11.86" transform="matrix(0.7071 -0.7071 0.7071 0.7071 -7.7968 6.6768)" class="st7" width="178.56" height="1.79"/>
				<polyline class="st7" points="-57.5,77.35 68.77,-48.91 70.03,-47.65 -56.23,78.62 				"/>
				
					<rect x="-80.91" y="16.07" transform="matrix(0.7071 -0.7071 0.7071 0.7071 -9.5401 10.8855)" class="st7" width="178.56" height="1.79"/>
				<polyline class="st7" points="-53.29,81.56 72.97,-44.7 74.24,-43.44 -52.03,82.83 				"/>
				
					<rect x="-76.7" y="20.27" transform="matrix(0.7071 -0.7071 0.7071 0.7071 -11.2834 15.0943)" class="st7" width="178.56" height="1.79"/>
				<polyline class="st7" points="-49.08,85.77 77.18,-40.49 78.45,-39.23 -47.82,87.03 				"/>
				
					<rect x="-72.49" y="24.48" transform="matrix(0.7071 -0.7071 0.7071 0.7071 -13.0267 19.303)" class="st7" width="178.56" height="1.79"/>
				<polyline class="st7" points="-44.87,89.98 81.39,-36.28 82.65,-35.02 -43.61,91.24 				"/>
				
					<rect x="-68.28" y="28.69" transform="matrix(0.7071 -0.7071 0.7071 0.7071 -14.7701 23.5117)" class="st7" width="178.56" height="1.79"/>
				<polyline class="st7" points="-40.66,94.19 85.6,-32.07 86.86,-30.81 -39.4,95.45 				"/>
				
					<rect x="-64.08" y="32.9" transform="matrix(0.7071 -0.7071 0.7071 0.7071 -16.5134 27.7205)" class="st7" width="178.56" height="1.79"/>
				<polyline class="st7" points="-36.45,98.4 89.81,-27.86 91.07,-26.6 -35.19,99.66 				"/>
				
					<rect x="-59.87" y="37.11" transform="matrix(0.7071 -0.7071 0.7071 0.7071 -18.2567 31.9292)" class="st7" width="178.56" height="1.79"/>
				<polyline class="st7" points="-32.24,102.61 94.02,-23.66 95.28,-22.39 -30.98,103.87 				"/>
				
					<rect x="-55.66" y="41.32" transform="matrix(0.7071 -0.7071 0.7071 0.7071 -20 36.138)" class="st7" width="178.56" height="1.79"/>
				<polyline class="st7" points="-28.04,106.82 98.23,-19.45 99.49,-18.18 -26.77,108.08 				"/>
				
					<rect x="-51.45" y="45.53" transform="matrix(0.7071 -0.7071 0.7071 0.7071 -21.7434 40.3467)" class="st7" width="178.56" height="1.79"/>
				<polyline class="st7" points="-23.83,111.02 102.44,-15.24 103.7,-13.98 -22.56,112.29 				"/>
				
					<rect x="-47.24" y="49.74" transform="matrix(0.7071 -0.7071 0.7071 0.7071 -23.4867 44.5555)" class="st7" width="178.56" height="1.79"/>
				<polyline class="st7" points="-19.62,115.23 106.64,-11.03 107.91,-9.77 -18.36,116.5 				"/>
				
					<rect x="-43.03" y="53.94" transform="matrix(0.7071 -0.7071 0.7071 0.7071 -25.23 48.7642)" class="st7" width="178.56" height="1.79"/>
				<polyline class="st7" points="-15.41,119.44 110.85,-6.82 112.12,-5.56 -14.15,120.7 				"/>
				
					<rect x="-38.82" y="58.15" transform="matrix(0.7071 -0.7071 0.7071 0.7071 -26.9733 52.9729)" class="st7" width="178.56" height="1.79"/>
				<polyline class="st7" points="-11.2,123.65 115.06,-2.61 116.32,-1.35 -9.94,124.91 				"/>
				
					<rect x="-34.61" y="62.36" transform="matrix(0.7071 -0.7071 0.7071 0.7071 -28.7166 57.1817)" class="st7" width="178.56" height="1.79"/>
				<polyline class="st7" points="-6.99,127.86 119.27,1.6 120.53,2.86 -5.73,129.12 				"/>
				
					<rect x="-30.41" y="66.57" transform="matrix(0.7071 -0.7071 0.7071 0.7071 -30.46 61.3904)" class="st7" width="178.56" height="1.79"/>
				<polyline class="st7" points="-2.78,132.07 123.48,5.81 124.74,7.07 -1.52,133.33 				"/>
				
					<rect x="-26.2" y="70.78" transform="matrix(0.7071 -0.7071 0.7071 0.7071 -32.2033 65.5992)" class="st7" width="178.56" height="1.79"/>
				<polyline class="st7" points="1.43,136.28 127.69,10.01 128.95,11.28 2.69,137.54 				"/>
			</g>
		</g>
	</g>
	<g>
		<rect y="2.24" class="st5" width="8.62" height="1.44"/>
		<rect x="9.34" y="2.24" class="st3" width="2.87" height="1.44"/>
	</g>
</g>
</svg>
